<?xml version="1.0" encoding="utf-8"?>
<!-- Generator: Adobe Illustrator 25.4.4, SVG Export Plug-In . SVG Version: 6.00 Build 0)  -->
<svg version="1.1" id="Calque_1" xmlns:serif="http://www.serif.com/"
	 xmlns="http://www.w3.org/2000/svg" xmlns:xlink="http://www.w3.org/1999/xlink" x="0px" y="0px" viewBox="0 0 600 600"
	 style="enable-background:new 0 0 600 600;" xml:space="preserve">
<style type="text/css">
	.st0{fill-rule:evenodd;clip-rule:evenodd;fill:#FFFFFF;}
</style>
<path class="st0" d="M526.7,0C567.2,0,600,32.8,600,73.3v453.4c0,40.5-32.8,73.3-73.3,73.3H73.3C32.8,600,0,567.2,0,526.7V73.3
	C0,32.8,32.8,0,73.3,0L526.7,0L526.7,0z M534,387.5c1.1-16.2-0.2-31.7-4-46.5c-3.8-14.8-9.9-28.1-18.4-39.6
	c-8.5-11.6-19.4-20.8-32.6-27.7c-13.3-6.9-28.7-10.3-46.4-10.3c-16,0-30.4,2.8-43.5,8.5c-13.1,5.7-24.3,13.4-33.8,23.3
	c-9.5,9.8-16.7,21.5-21.9,35c-5.1,13.5-7.7,28.1-7.7,43.7c0,16.1,2.5,31,7.5,44.5c5,13.5,12.1,25,21.2,34.8
	c9.3,9.7,20.4,17.1,33.7,22.5c13.3,5.2,28.1,7.9,44.5,7.9c23.6,0,43.8-5.4,60.4-16.2c16.8-10.8,29.1-28.7,37.2-53.9h-50.5
	c-2,6.5-7,12.7-15.3,18.5c-8.4,5.8-18.4,8.8-29.9,8.8c-16.1,0-28.5-4.2-37.1-12.6c-8.6-8.4-14.2-24-14.2-40.5L534,387.5L534,387.5z
	 M205.4,478.1c12.9,0,25.6-1.6,37.7-4.8c12.3-3.2,23.2-8.2,32.8-15c9.5-6.7,17.2-15.4,22.8-26.1c5.6-10.6,8.4-23.2,8.4-37.8
	c0-18-4.3-33.4-13-46.3c-8.7-12.8-21.9-21.7-39.6-26.9c13-6.2,22.8-14.1,29.4-23.8c6.6-9.7,9.9-21.8,9.9-36.3
	c0-13.4-2.2-24.8-6.6-33.8c-4.5-9.2-10.8-16.5-18.8-22c-8.2-5.5-17.8-9.5-29.1-11.9c-11.4-2.5-23.8-3.7-37.6-3.7H65.6v288.3H205.4
	L205.4,478.1z M198.1,349.6c13.7,0,24.8,3.1,33.1,9.5c8.3,6.4,12.5,17,12.5,31.8c0,7.6-1.2,13.9-3.8,18.7
	c-2.6,4.9-6.1,8.7-10.3,11.5c-4.3,2.9-9.3,4.9-15,6.1c-5.6,1.3-11.5,1.8-17.8,1.8h-67.8v-79.4H198.1z M463.4,318.3
	c-6.8-7.5-18.4-11.6-32.4-11.6c-9.2,0-16.7,1.5-22.8,4.7c-5.9,3.1-10.8,7-14.5,11.5c-3.7,4.6-6.2,9.5-7.7,14.7
	c-1.5,5.1-2.4,9.7-2.6,13.8h93.3C475.3,336.7,470.3,325.9,463.4,318.3L463.4,318.3z M188.5,238.9c5.6,0,11.1,0.4,16.3,1.4
	c5.3,0.9,9.9,2.6,14,5.1c4.1,2.4,7.3,5.7,9.8,10c2.4,4.3,3.5,9.9,3.5,16.6c0,12.1-3.5,20.9-10.8,26.2c-7.4,5.4-16.7,8.1-27.9,8.1
	h-64.3v-67.4L188.5,238.9L188.5,238.9z M488.5,237.5v-28.4H371.6v28.4H488.5z"/>
</svg>
