<?xml version="1.0" encoding="utf-8"?>
<!-- Generator: Adobe Illustrator 25.4.4, SVG Export Plug-In . SVG Version: 6.00 Build 0)  -->
<svg version="1.1" id="Calque_1" xmlns:serif="http://www.serif.com/"
	 xmlns="http://www.w3.org/2000/svg" xmlns:xlink="http://www.w3.org/1999/xlink" x="0px" y="0px" viewBox="0 0 600 600"
	 style="enable-background:new 0 0 600 600;" xml:space="preserve">
<style type="text/css">
	.st0{fill-rule:evenodd;clip-rule:evenodd;fill:#FFFFFF;}
</style>
<path class="st0" d="M526.7,0C567.2,0,600,32.8,600,73.3v453.4c0,40.5-32.8,73.3-73.3,73.3H73.3C32.8,600,0,567.2,0,526.7V73.3
	C0,32.8,32.8,0,73.3,0L526.7,0L526.7,0z M300,94.9c-55.7,0-62.7,0.2-84.6,1.2c-21.8,1-36.7,4.5-49.8,9.5
	c-13.5,5.2-24.9,12.3-36.3,23.7c-11.4,11.4-18.4,22.8-23.7,36.3c-5.1,13-8.5,28-9.5,49.8c-1,21.9-1.2,28.9-1.2,84.6
	s0.2,62.7,1.2,84.6c1,21.8,4.5,36.7,9.5,49.8c5.2,13.5,12.3,24.9,23.7,36.3c11.4,11.4,22.8,18.4,36.3,23.7c13,5.1,28,8.5,49.8,9.5
	c21.9,1,28.9,1.2,84.6,1.2s62.7-0.2,84.6-1.2c21.8-1,36.7-4.5,49.8-9.5c13.5-5.2,24.9-12.3,36.3-23.7s18.4-22.8,23.7-36.3
	c5.1-13,8.5-28,9.5-49.8c1-21.9,1.2-28.9,1.2-84.6s-0.2-62.7-1.2-84.6c-1-21.8-4.5-36.7-9.5-49.8c-5.2-13.5-12.3-24.9-23.7-36.3
	c-11.4-11.4-22.8-18.4-36.3-23.7c-13-5.1-28-8.5-49.8-9.5C362.7,95.2,355.7,94.9,300,94.9z M300,131.9c54.8,0,61.2,0.2,82.9,1.2
	c20,0.9,30.9,4.3,38.1,7.1c9.6,3.7,16.4,8.2,23.6,15.3c7.2,7.2,11.6,14,15.3,23.6c2.8,7.2,6.1,18.1,7.1,38.1
	c1,21.6,1.2,28.1,1.2,82.9s-0.2,61.2-1.2,82.9c-0.9,20-4.3,30.9-7.1,38.1c-3.7,9.6-8.2,16.4-15.3,23.6c-7.2,7.2-14,11.6-23.6,15.3
	c-7.2,2.8-18.1,6.1-38.1,7.1c-21.6,1-28.1,1.2-82.9,1.2s-61.2-0.2-82.9-1.2c-20-0.9-30.9-4.3-38.1-7.1c-9.6-3.7-16.4-8.2-23.6-15.3
	c-7.2-7.2-11.6-14-15.3-23.6c-2.8-7.2-6.1-18.1-7.1-38.1c-1-21.6-1.2-28.1-1.2-82.9s0.2-61.2,1.2-82.9c0.9-20,4.3-30.9,7.1-38.1
	c3.7-9.6,8.2-16.4,15.3-23.6c7.2-7.2,14-11.6,23.6-15.3c7.2-2.8,18.1-6.1,38.1-7.1C238.8,132.1,245.2,131.9,300,131.9L300,131.9z
	 M300,194.7c-58.2,0-105.3,47.1-105.3,105.3S241.8,405.3,300,405.3S405.3,358.2,405.3,300S358.2,194.7,300,194.7L300,194.7z
	 M300,368.4c-37.8,0-68.4-30.6-68.4-68.4s30.6-68.4,68.4-68.4s68.4,30.6,68.4,68.4S337.8,368.4,300,368.4z M434.1,190.5
	c0,13.6-11,24.6-24.6,24.6c-13.6,0-24.6-11-24.6-24.6c0-13.6,11-24.6,24.6-24.6C423.1,165.9,434.1,176.9,434.1,190.5L434.1,190.5z"
	/>
</svg>
