<?xml version="1.0" encoding="utf-8"?>
<!-- Generator: Adobe Illustrator 25.4.4, SVG Export Plug-In . SVG Version: 6.00 Build 0)  -->
<svg version="1.1" id="Calque_1" xmlns:serif="http://www.serif.com/"
	 xmlns="http://www.w3.org/2000/svg" xmlns:xlink="http://www.w3.org/1999/xlink" x="0px" y="0px" viewBox="0 0 600 600"
	 style="enable-background:new 0 0 600 600;" xml:space="preserve">
<style type="text/css">
	.st0{fill-rule:evenodd;clip-rule:evenodd;fill:#FFFFFF;}
</style>
<path class="st0" d="M526.7,0C567.2,0,600,32.8,600,73.3v453.4c0,40.5-32.8,73.3-73.3,73.3H73.3C32.8,600,0,567.2,0,526.7V73.3
	C0,32.8,32.8,0,73.3,0L526.7,0L526.7,0z M188,496V231.5h-87.9V496H188z M505.1,496V344.3c0-81.2-43.4-119-101.2-119
	c-46.6,0-67.5,25.7-79.2,43.7v-37.5h-87.9c1.2,24.8,0,264.5,0,264.5h87.9V348.3c0-7.9,0.6-15.8,2.9-21.5
	c6.3-15.8,20.8-32.1,45.1-32.1c31.8,0,44.5,24.3,44.5,59.8V496H505.1L505.1,496z M144.7,104c-30.1,0-49.7,19.8-49.7,45.7
	c0,25.4,19.1,45.7,48.6,45.7h0.6c30.7,0,49.7-20.3,49.7-45.7C193.2,123.8,174.8,104,144.7,104z"/>
</svg>
