<?xml version="1.0" encoding="utf-8"?>
<!-- Generator: Adobe Illustrator 25.4.4, SVG Export Plug-In . SVG Version: 6.00 Build 0)  -->
<svg version="1.1" id="Calque_1" xmlns="http://www.w3.org/2000/svg" xmlns:xlink="http://www.w3.org/1999/xlink" x="0px" y="0px"
	 viewBox="0 0 700 700" style="enable-background:new 0 0 700 700;" xml:space="preserve">
<style type="text/css">
	.st0{fill:#FFFFFF;}
</style>
<path class="st0" d="M534.1,147.6c-70.4-27.4-150.1,4.3-178,70.7c-7,16.8-10,33.8-9.6,50.8c-14.9-22.7-37.4-41.5-65.8-52.3
	c-70.5-27.4-150.4,4.3-178.2,70.7c-26.8,63.7,4.3,136.4,69.7,166.1c-19.8,26-50.3,44.9-76.1,58c-25.8,13.1-14.7,33.5,3.3,36.4
	c0,0,188.5-44.4,249.2-143.7c1.3-2.1,2.6-4.3,3.9-6.7c0.6-0.8,0.8-1.6,1-2.1c1.6-2.8,3.1-5.9,4.3-9c7-16.5,10-33.8,9.6-50.8
	c13.7,20.6,33.5,37.9,58,49c-19.8,26-50.3,44.9-76.1,58c-25.8,13.1-14.7,33.5,3.3,36.4c0,0,188.5-44.4,249.2-143.7
	c1.3-2.1,2.6-4.3,3.9-6.7c0.6-0.8,0.8-1.6,1-2.1c1.6-2.8,3.1-5.9,4.3-9C639.4,250.5,604.8,174.9,534.1,147.6L534.1,147.6z"/>
</svg>
