<?xml version="1.0" encoding="utf-8"?>
<!-- Generator: Adobe Illustrator 25.4.4, SVG Export Plug-In . SVG Version: 6.00 Build 0)  -->
<svg version="1.1" id="Calque_1" xmlns:serif="http://www.serif.com/"
	 xmlns="http://www.w3.org/2000/svg" xmlns:xlink="http://www.w3.org/1999/xlink" x="0px" y="0px" viewBox="0 0 600 600"
	 style="enable-background:new 0 0 600 600;" xml:space="preserve">
<style type="text/css">
	.st0{fill-rule:evenodd;clip-rule:evenodd;fill:#FFFFFF;}
</style>
<path class="st0" d="M526.7,0C567.2,0,600,32.8,600,73.3v453.4c0,40.5-32.8,73.3-73.3,73.3H73.3C32.8,600,0,567.2,0,526.7V73.3
	C0,32.8,32.8,0,73.3,0L526.7,0L526.7,0z M502.1,205.8c-4.9-18.2-19.1-32.4-37.3-37.3c-32.9-8.8-164.8-8.8-164.8-8.8
	s-131.9,0-164.8,8.8c-18.1,4.9-32.4,19.1-37.3,37.3c-8.8,32.9-8.8,101.5-8.8,101.5s0,68.6,8.8,101.5c4.9,18.2,19.1,32.4,37.3,37.3
	C168.1,455,300,455,300,455s131.9,0,164.8-8.8c18.2-4.9,32.4-19.1,37.3-37.3c8.8-32.9,8.8-101.5,8.8-101.5S510.9,238.7,502.1,205.8z
	 M257.8,370.6V244.1l109.6,63.3L257.8,370.6L257.8,370.6z"/>
</svg>
